<svg width="70" height="70" viewBox="0 0 70 70" fill="none" xmlns="http://www.w3.org/2000/svg"><circle cx="35" cy="35" r="35" fill="#FFB800"/><g clip-path="url(#clip0)"><path fill-rule="evenodd" clip-rule="evenodd" d="M35 20.779c8.236 0 16.118 6.056 21.325 12.348a2.946 2.946 0 010 3.753c-1.308 1.581-4.05 4.633-7.714 7.299-9.245 6.73-17.997 6.716-27.222 0-3.663-2.666-6.406-5.718-7.714-7.299a2.945 2.945 0 010-3.753C18.88 26.84 26.762 20.78 35 20.78zM38.972 28a4.84 4.84 0 013.6 1.567c.92.999 1.428 2.363 1.428 3.842 0 1.523-.567 2.916-1.785 4.386-1.09 1.315-2.656 2.649-4.469 4.194l-.015.013c-.616.525-1.313 1.119-2.035 1.751a1.056 1.056 0 01-1.392 0c-.728-.637-1.43-1.235-2.049-1.762v-.001c-1.814-1.546-3.38-2.88-4.47-4.195C26.567 36.325 26 34.932 26 33.409c0-1.479.507-2.843 1.428-3.842a4.84 4.84 0 013.6-1.567c1.04 0 1.99.328 2.828.976.423.327.806.727 1.144 1.194.338-.467.72-.867 1.143-1.194A4.528 4.528 0 0138.972 28z" fill="#fff"/></g><defs><clipPath id="clip0"><path fill="#fff" transform="translate(13 13)" d="M0 0h44v44H0z"/></clipPath></defs></svg>