<svg viewBox="0 0 70 70" fill="none" xmlns="http://www.w3.org/2000/svg"><circle cx="35" cy="35" r="35" fill="#DD5385"/><path d="M20.377 48.86c-.029 4.848 4.521 6.775 4.521 6.775h11.466c4.704-2.294 4.52-6.774 4.52-6.774H20.378zM47.312 16.47l-.247-1.147-1.202.225c-.314.059-7.727 1.501-11.487 6.9-3.233 4.645-2.597 10.541-2.314 12.29l-2.597 3.729h-3.81v3.645c-2.251.962-3.925 2.538-4.736 4.385h19.424c-.81-1.847-2.485-3.423-4.736-4.385v-3.645h-3.171l1.684-2.42c1.797-.426 7.734-2.143 10.968-6.788.198-.285.871-1.423.871-1.423l-1.052-2.214 2.268-1.14s.876-4.18.137-8.013z" fill="#fff"/></svg>