<svg width="70" height="70" viewBox="0 0 70 70" fill="none" xmlns="http://www.w3.org/2000/svg"><circle cx="35" cy="35" r="35" fill="#2D5FDF"/><path d="M20 39.005h-2a1 1 0 00-1 1v12a1 1 0 001 1h2a1 1 0 001-1v-12a1 1 0 00-1-1zM34.621 36.93c.243.1.515.1.758 0C40.976 34.64 47 29.208 47 22.7c0-3.389-1.643-6.162-4.286-7.238-2.463-1.008-5.287-.338-7.714 1.77-2.428-2.108-5.254-2.776-7.714-1.77C24.643 16.538 23 19.312 23 22.7c0 6.508 6.024 11.94 11.621 14.23zM51.97 41.588a2.951 2.951 0 00-1.843-.583 4.79 4.79 0 00-1.23.173l-8.219 2.07a3.99 3.99 0 01-4.6 5.64l-4.685-1.255a1 1 0 01.517-1.932l4.686 1.256a2 2 0 101.035-3.864l-7.775-2.083H23v10h1.818l8.979 3.372a6.337 6.337 0 006.367-.514l10.328-6.991c.62-.35 2.508-1.419 2.508-3.108a2.712 2.712 0 00-1.03-2.181z" fill="#fff"/></svg>