<svg width="70" height="70" viewBox="0 0 70 70" fill="none" xmlns="http://www.w3.org/2000/svg"><circle cx="35" cy="35" r="35" fill="#02C3DD"/><path fill-rule="evenodd" clip-rule="evenodd" d="M48.73 16.353a23.156 23.156 0 018.383 11.774 4.055 4.055 0 012.262 3.623v6.5a4.055 4.055 0 01-2.262 3.623 23.288 23.288 0 01-19.035 16.06A3.25 3.25 0 1137.9 55.5 20.85 20.85 0 0054.38 42.313h-.693a2.432 2.432 0 01-2.412-2.185 17.063 17.063 0 01-26.367 8.634C22.5 49.5 16.5 51.5 16.5 51.5s2.225-4 4.073-7.386a17.06 17.06 0 01-1.848-3.986 2.432 2.432 0 01-2.413 2.184h-1.625a4.067 4.067 0 01-4.062-4.062v-6.5a4.054 4.054 0 012.262-3.623 23.156 23.156 0 0135.844-11.774zm-3.638 4.885a17.063 17.063 0 016.183 8.634 2.432 2.432 0 012.413-2.184h.69a20.707 20.707 0 00-38.755 0h.69a2.433 2.433 0 012.412 2.184 17.063 17.063 0 0126.367-8.634zM30 35c1.105 0 2-1.12 2-2.5s-.895-2.5-2-2.5-2 1.12-2 2.5.895 2.5 2 2.5zm12-2.5c0 1.38-.895 2.5-2 2.5s-2-1.12-2-2.5.895-2.5 2-2.5 2 1.12 2 2.5zM35 43c2.761 0 5-2.143 5-3H30c0 .857 2.239 3 5 3z" fill="#fff"/></svg>