<svg width="30" height="30" xmlns="http://www.w3.org/2000/svg"><rect class="rear" fill="#191E23" fill-rule="evenodd" width="30" height="30" rx="3" fill-opacity="inherit"/><path fill-rule="evenodd" fill="#FFF" d="M21.076 6.118c-.618.207-1.939 1.53-.264 3.89 1.674 2.361.683 5.05.683 5.05l-1.46 4.974L16.36 8.808s1.038-.08 1.187-.103a.429.429 0 00.354-.491c-.042-.319-.27-.365-.487-.353-.108.005-1.39.105-2.662.105-1.265 0-2.522-.1-2.611-.105-.18-.01-.44.01-.501.3-.045.241.067.51.321.54.255.031.084.009 1.112.107l1.583 4.45-2.238 6.823L8.73 8.808s1.038-.08 1.187-.103a.429.429 0 00.354-.49c-.041-.32-.27-.366-.487-.354-.108.006-1.39.105-2.663.105-1.264 0-2.52-.1-2.61-.105-.18-.01-.439.01-.501.3-.045.241.067.51.321.54.255.032.084.009 1.112.107 0 0 4.906 13.794 5.166 14.534.26.74 1.337.932 1.644-.035.227-.716 1.99-5.972 2.895-8.665 1.373 3.862 2.947 8.29 3.09 8.7.261.74 1.338.932 1.645-.035.307-.968 2.042-5.963 3.53-10.436 1.317-4.076.096-7.565-2.337-6.753z"/></svg>